<mxfile host="app.diagrams.net" agent="Mozilla/5.0 (Windows NT 10.0; Win64; x64) AppleWebKit/537.36 (KHTML, like Gecko) Chrome/140.0.0.0 Safari/537.36" version="28.2.3">
  <diagram name="Trang-1" id="FHnisxPVvG0NzuaJt_NG">
    <mxGraphModel dx="1042" dy="527" grid="1" gridSize="10" guides="1" tooltips="1" connect="1" arrows="1" fold="1" page="1" pageScale="1" pageWidth="827" pageHeight="1169" math="0" shadow="0">
      <root>
        <mxCell id="0" />
        <mxCell id="1" parent="0" />
        <mxCell id="xlEnbBvbEmKkMg_4plet-5" value="" style="edgeStyle=orthogonalEdgeStyle;rounded=0;orthogonalLoop=1;jettySize=auto;html=1;" parent="1" source="xlEnbBvbEmKkMg_4plet-1" target="xlEnbBvbEmKkMg_4plet-4" edge="1">
          <mxGeometry relative="1" as="geometry" />
        </mxCell>
        <mxCell id="xlEnbBvbEmKkMg_4plet-1" value="start" style="ellipse;whiteSpace=wrap;html=1;" parent="1" vertex="1">
          <mxGeometry x="340" y="20" width="120" height="80" as="geometry" />
        </mxCell>
        <mxCell id="LwkcQNN0YSsaFECB714L-6" value="" style="edgeStyle=orthogonalEdgeStyle;rounded=0;orthogonalLoop=1;jettySize=auto;html=1;" edge="1" parent="1" source="xlEnbBvbEmKkMg_4plet-4" target="LwkcQNN0YSsaFECB714L-5">
          <mxGeometry relative="1" as="geometry" />
        </mxCell>
        <mxCell id="xlEnbBvbEmKkMg_4plet-4" value="chọn món" style="shape=parallelogram;perimeter=parallelogramPerimeter;whiteSpace=wrap;html=1;fixedSize=1;" parent="1" vertex="1">
          <mxGeometry x="340" y="190" width="120" height="60" as="geometry" />
        </mxCell>
        <mxCell id="LwkcQNN0YSsaFECB714L-8" value="" style="edgeStyle=orthogonalEdgeStyle;rounded=0;orthogonalLoop=1;jettySize=auto;html=1;" edge="1" parent="1" source="LwkcQNN0YSsaFECB714L-5" target="LwkcQNN0YSsaFECB714L-7">
          <mxGeometry relative="1" as="geometry" />
        </mxCell>
        <mxCell id="LwkcQNN0YSsaFECB714L-10" value="" style="edgeStyle=orthogonalEdgeStyle;rounded=0;orthogonalLoop=1;jettySize=auto;html=1;" edge="1" parent="1" source="LwkcQNN0YSsaFECB714L-5" target="LwkcQNN0YSsaFECB714L-9">
          <mxGeometry relative="1" as="geometry" />
        </mxCell>
        <mxCell id="LwkcQNN0YSsaFECB714L-5" value="Xác nhận chọn món" style="rhombus;whiteSpace=wrap;html=1;" vertex="1" parent="1">
          <mxGeometry x="360" y="320" width="80" height="80" as="geometry" />
        </mxCell>
        <mxCell id="LwkcQNN0YSsaFECB714L-7" value="Chọn lại món" style="shape=parallelogram;perimeter=parallelogramPerimeter;whiteSpace=wrap;html=1;fixedSize=1;" vertex="1" parent="1">
          <mxGeometry x="500" y="330" width="120" height="60" as="geometry" />
        </mxCell>
        <mxCell id="LwkcQNN0YSsaFECB714L-12" value="" style="edgeStyle=orthogonalEdgeStyle;rounded=0;orthogonalLoop=1;jettySize=auto;html=1;" edge="1" parent="1" source="LwkcQNN0YSsaFECB714L-9" target="LwkcQNN0YSsaFECB714L-11">
          <mxGeometry relative="1" as="geometry">
            <Array as="points">
              <mxPoint x="240" y="450" />
              <mxPoint x="240" y="450" />
            </Array>
          </mxGeometry>
        </mxCell>
        <mxCell id="LwkcQNN0YSsaFECB714L-9" value="Cung cấp địa chỉ và phương thức thanh toán" style="whiteSpace=wrap;html=1;" vertex="1" parent="1">
          <mxGeometry x="180" y="330" width="120" height="60" as="geometry" />
        </mxCell>
        <mxCell id="LwkcQNN0YSsaFECB714L-11" value="&amp;nbsp; &amp;nbsp;Nhận món ăn tại địa chỉ đã cung cấp" style="shape=parallelogram;perimeter=parallelogramPerimeter;whiteSpace=wrap;html=1;fixedSize=1;align=center;size=20;" vertex="1" parent="1">
          <mxGeometry x="160" y="470" width="170" height="60" as="geometry" />
        </mxCell>
        <mxCell id="LwkcQNN0YSsaFECB714L-13" value="end" style="ellipse;whiteSpace=wrap;html=1;" vertex="1" parent="1">
          <mxGeometry x="170" y="590" width="120" height="80" as="geometry" />
        </mxCell>
        <mxCell id="LwkcQNN0YSsaFECB714L-14" value="" style="endArrow=classic;html=1;rounded=0;" edge="1" parent="1" source="LwkcQNN0YSsaFECB714L-11" target="LwkcQNN0YSsaFECB714L-13">
          <mxGeometry width="50" height="50" relative="1" as="geometry">
            <mxPoint x="390" y="500" as="sourcePoint" />
            <mxPoint x="440" y="450" as="targetPoint" />
          </mxGeometry>
        </mxCell>
        <mxCell id="LwkcQNN0YSsaFECB714L-15" value="" style="endArrow=classic;html=1;rounded=0;" edge="1" parent="1" source="LwkcQNN0YSsaFECB714L-7" target="xlEnbBvbEmKkMg_4plet-4">
          <mxGeometry width="50" height="50" relative="1" as="geometry">
            <mxPoint x="390" y="400" as="sourcePoint" />
            <mxPoint x="440" y="350" as="targetPoint" />
            <Array as="points">
              <mxPoint x="560" y="220" />
            </Array>
          </mxGeometry>
        </mxCell>
      </root>
    </mxGraphModel>
  </diagram>
</mxfile>
